<mxfile host="app.diagrams.net" modified="2021-06-29T11:35:52.924Z" agent="5.0 (Windows)" etag="iWykJJM-nZ_LhY2XCN8K" version="14.8.2" type="github">
  <diagram id="flgI388KRnLEFQyKKhvF" name="Page-1">
    <mxGraphModel dx="1422" dy="752" grid="1" gridSize="3" guides="1" tooltips="1" connect="1" arrows="1" fold="1" page="1" pageScale="1" pageWidth="2339" pageHeight="3300" math="0" shadow="0">
      <root>
        <mxCell id="0" />
        <mxCell id="1" parent="0" />
        <mxCell id="YpRczoWFLhLvGYCxu6Dq-4" value=":Object" style="shape=umlLifeline;perimeter=lifelinePerimeter;whiteSpace=wrap;html=1;container=1;collapsible=0;recursiveResize=0;outlineConnect=0;fillColor=#dae8fc;strokeColor=#6c8ebf;" parent="1" vertex="1">
          <mxGeometry x="66" y="30" width="100" height="300" as="geometry" />
        </mxCell>
        <mxCell id="YpRczoWFLhLvGYCxu6Dq-5" value="" style="html=1;points=[];perimeter=orthogonalPerimeter;gradientColor=none;" parent="YpRczoWFLhLvGYCxu6Dq-4" vertex="1">
          <mxGeometry x="45" y="63" width="10" height="80" as="geometry" />
        </mxCell>
        <mxCell id="YpRczoWFLhLvGYCxu6Dq-6" value=":Object" style="shape=umlLifeline;perimeter=lifelinePerimeter;whiteSpace=wrap;html=1;container=1;collapsible=0;recursiveResize=0;outlineConnect=0;fillColor=#dae8fc;strokeColor=#6c8ebf;" parent="1" vertex="1">
          <mxGeometry x="189" y="30" width="100" height="300" as="geometry" />
        </mxCell>
        <mxCell id="YpRczoWFLhLvGYCxu6Dq-7" value="" style="html=1;points=[];perimeter=orthogonalPerimeter;gradientColor=none;" parent="YpRczoWFLhLvGYCxu6Dq-6" vertex="1">
          <mxGeometry x="45" y="63" width="10" height="80" as="geometry" />
        </mxCell>
        <mxCell id="YpRczoWFLhLvGYCxu6Dq-8" value=":Object" style="shape=umlLifeline;perimeter=lifelinePerimeter;whiteSpace=wrap;html=1;container=1;collapsible=0;recursiveResize=0;outlineConnect=0;fillColor=#dae8fc;strokeColor=#6c8ebf;" parent="1" vertex="1">
          <mxGeometry x="327" y="30" width="100" height="300" as="geometry" />
        </mxCell>
        <mxCell id="YpRczoWFLhLvGYCxu6Dq-9" value="" style="html=1;points=[];perimeter=orthogonalPerimeter;gradientColor=none;" parent="YpRczoWFLhLvGYCxu6Dq-8" vertex="1">
          <mxGeometry x="45" y="63" width="10" height="80" as="geometry" />
        </mxCell>
        <mxCell id="QwN1EIhMnK7KAcdYqA1l-1" value=":Object" style="shape=umlLifeline;perimeter=lifelinePerimeter;whiteSpace=wrap;html=1;container=1;collapsible=0;recursiveResize=0;outlineConnect=0;fillColor=#dae8fc;strokeColor=#6c8ebf;" vertex="1" parent="1">
          <mxGeometry x="522" y="48" width="100" height="300" as="geometry" />
        </mxCell>
        <mxCell id="QwN1EIhMnK7KAcdYqA1l-2" value="" style="html=1;points=[];perimeter=orthogonalPerimeter;gradientColor=none;" vertex="1" parent="QwN1EIhMnK7KAcdYqA1l-1">
          <mxGeometry x="45" y="63" width="10" height="80" as="geometry" />
        </mxCell>
      </root>
    </mxGraphModel>
  </diagram>
</mxfile>
